<svg width="34" height="34" viewBox="0 0 34 34" fill="none" xmlns="http://www.w3.org/2000/svg">
<path d="M15.9375 6.42156C13.7906 5.04729 11.2377 4.25 8.5 4.25C6.88752 4.25 5.33738 4.52675 3.89593 5.03623C3.47136 5.18629 3.1875 5.58769 3.1875 6.038V26.2255C3.1875 26.5704 3.35492 26.8939 3.63653 27.093C3.91813 27.2921 4.27888 27.3422 4.60407 27.2273C5.82125 26.7971 7.13208 26.5625 8.5 26.5625C11.3263 26.5625 13.9163 27.5644 15.9375 29.2339V6.42156Z" fill="#CAFF33"/>
<path d="M18.0625 29.2339C20.0837 27.5644 22.6737 26.5625 25.5 26.5625C26.8679 26.5625 28.1788 26.7971 29.3959 27.2273C29.7211 27.3422 30.0819 27.2921 30.3635 27.093C30.6451 26.8939 30.8125 26.5704 30.8125 26.2255V6.038C30.8125 5.58769 30.5286 5.18629 30.1041 5.03623C28.6626 4.52675 27.1125 4.25 25.5 4.25C22.7623 4.25 20.2094 5.04729 18.0625 6.42156V29.2339Z" fill="#CAFF33"/>
</svg>
