<svg width="34" height="34" viewBox="0 0 34 34" fill="none" xmlns="http://www.w3.org/2000/svg">
<path fill-rule="evenodd" clip-rule="evenodd" d="M4.25 3.1875C3.6632 3.1875 3.1875 3.6632 3.1875 4.25C3.1875 4.8368 3.6632 5.3125 4.25 5.3125V28.6875H3.1875C2.6007 28.6875 2.125 29.1632 2.125 29.75C2.125 30.3368 2.6007 30.8125 3.1875 30.8125H21.25V5.3125C21.8368 5.3125 22.3125 4.8368 22.3125 4.25C22.3125 3.6632 21.8368 3.1875 21.25 3.1875H4.25ZM9.5625 27.625V24.4375C9.5625 23.8507 10.0382 23.375 10.625 23.375H14.875C15.4618 23.375 15.9375 23.8507 15.9375 24.4375V27.625C15.9375 28.2118 15.4618 28.6875 14.875 28.6875H10.625C10.0382 28.6875 9.5625 28.2118 9.5625 27.625ZM8.5 9.5625C8.5 8.9757 8.9757 8.5 9.5625 8.5H10.625C11.2118 8.5 11.6875 8.9757 11.6875 9.5625C11.6875 10.1493 11.2118 10.625 10.625 10.625H9.5625C8.9757 10.625 8.5 10.1493 8.5 9.5625ZM9.5625 12.75C8.9757 12.75 8.5 13.2257 8.5 13.8125C8.5 14.3993 8.9757 14.875 9.5625 14.875H10.625C11.2118 14.875 11.6875 14.3993 11.6875 13.8125C11.6875 13.2257 11.2118 12.75 10.625 12.75H9.5625ZM8.5 18.0625C8.5 17.4757 8.9757 17 9.5625 17H10.625C11.2118 17 11.6875 17.4757 11.6875 18.0625C11.6875 18.6493 11.2118 19.125 10.625 19.125H9.5625C8.9757 19.125 8.5 18.6493 8.5 18.0625ZM14.875 8.5C14.2882 8.5 13.8125 8.9757 13.8125 9.5625C13.8125 10.1493 14.2882 10.625 14.875 10.625H15.9375C16.5243 10.625 17 10.1493 17 9.5625C17 8.9757 16.5243 8.5 15.9375 8.5H14.875ZM13.8125 13.8125C13.8125 13.2257 14.2882 12.75 14.875 12.75H15.9375C16.5243 12.75 17 13.2257 17 13.8125C17 14.3993 16.5243 14.875 15.9375 14.875H14.875C14.2882 14.875 13.8125 14.3993 13.8125 13.8125ZM14.875 17C14.2882 17 13.8125 17.4757 13.8125 18.0625C13.8125 18.6493 14.2882 19.125 14.875 19.125H15.9375C16.5243 19.125 17 18.6493 17 18.0625C17 17.4757 16.5243 17 15.9375 17H14.875Z" fill="#CAFF33"/>
<path fill-rule="evenodd" clip-rule="evenodd" d="M23.375 9.5625V30.8125H30.8125C31.3993 30.8125 31.875 30.3368 31.875 29.75C31.875 29.1632 31.3993 28.6875 30.8125 28.6875H29.75V11.6875C30.3368 11.6875 30.8125 11.2118 30.8125 10.625C30.8125 10.0382 30.3368 9.5625 29.75 9.5625H23.375ZM25.5 15.9375C25.5 15.3507 25.9757 14.875 26.5625 14.875H26.5731C27.1599 14.875 27.6356 15.3507 27.6356 15.9375V15.9481C27.6356 16.5349 27.1599 17.0106 26.5731 17.0106H26.5625C25.9757 17.0106 25.5 16.5349 25.5 15.9481V15.9375ZM26.5625 19.125C25.9757 19.125 25.5 19.6007 25.5 20.1875V20.1981C25.5 20.7849 25.9757 21.2606 26.5625 21.2606H26.5731C27.1599 21.2606 27.6356 20.7849 27.6356 20.1981V20.1875C27.6356 19.6007 27.1599 19.125 26.5731 19.125H26.5625ZM25.5 24.4375C25.5 23.8507 25.9757 23.375 26.5625 23.375H26.5731C27.1599 23.375 27.6356 23.8507 27.6356 24.4375V24.4481C27.6356 25.0349 27.1599 25.5106 26.5731 25.5106H26.5625C25.9757 25.5106 25.5 25.0349 25.5 24.4481V24.4375Z" fill="#CAFF33"/>
</svg>
