<svg width="34" height="34" viewBox="0 0 34 34" fill="none" xmlns="http://www.w3.org/2000/svg">
<g clip-path="url(#clip0_101_96)">
<path d="M20.0509 7.79531C20.0883 7.83893 20.0945 7.8514 20.1008 7.8514C20.7177 7.93865 21.0044 8.39981 21.3347 8.86098C21.7149 9.38447 22.1698 9.86433 22.6559 10.3006C23.9335 11.4535 24.7187 12.8495 24.9804 14.5508C25.4354 17.5297 23.7278 20.5896 20.9234 21.7799C16.6669 23.5872 11.9119 20.8389 11.4196 16.2397C11.1579 13.7905 12.0553 11.7651 13.9249 10.1697C14.5294 9.65245 15.0342 9.05417 15.4517 8.37489C15.5265 8.25025 15.6636 8.15053 15.7945 8.08821C16.0064 7.9885 16.2432 7.93241 16.5111 7.83893C16.4239 7.73299 16.3616 7.65821 16.293 7.58342C15.8755 7.15341 15.4579 6.71094 15.0342 6.2934C14.8846 6.14383 14.816 5.98803 14.8223 5.77614C14.8347 4.8912 14.8285 4.01249 14.8285 3.12754C14.8285 2.77232 15.2647 2.20521 15.62 2.13666C16.025 2.05564 16.4426 2.01202 16.8477 1.931C16.9661 1.90607 17.0969 1.83129 17.1655 1.73781C17.7575 0.940112 18.7983 0.93388 19.3841 1.72534C19.4651 1.83129 19.6209 1.9123 19.7518 1.94346C20.1257 2.02448 20.5059 2.0681 20.886 2.13666C21.2662 2.21144 21.6712 2.70377 21.6712 3.09015C21.6712 3.98133 21.665 4.87873 21.6775 5.76991C21.6837 6.00049 21.6089 6.15629 21.4531 6.31833C20.9795 6.79819 20.5245 7.29052 20.0509 7.79531ZM17.4335 11.2665C17.4148 11.3413 17.3961 11.3849 17.4023 11.4223C17.4833 11.8399 17.2901 12.0206 16.9038 12.1764C16.1684 12.4818 15.8381 13.0987 15.8568 13.8902C15.8755 14.6754 16.2993 15.1615 17.0097 15.417C17.3213 15.5292 17.6454 15.6102 17.957 15.7162C18.2436 15.8097 18.5303 15.9031 18.8045 16.0153C19.0351 16.1088 19.166 16.2895 19.141 16.5513C19.1161 16.8192 18.9479 16.975 18.711 17.0187C18.468 17.0685 18.2062 17.1121 17.9757 17.0561C17.527 16.9501 17.097 16.7694 16.6233 16.6074C16.4114 16.8878 16.1684 17.2056 15.8755 17.5982C16.318 17.7914 16.6981 17.9909 17.1032 18.128C17.3338 18.2027 17.4272 18.3025 17.3961 18.5393C17.3774 18.7075 17.3899 18.882 17.3899 19.0752C17.7451 19.0752 18.0442 19.0752 18.3434 19.0752C18.7734 19.0752 18.7921 19.0752 18.7671 18.6328C18.7547 18.3585 18.817 18.209 19.1161 18.1716C19.2719 18.1529 19.4277 18.0656 19.5711 17.9846C20.2316 17.6232 20.5059 17.0436 20.4934 16.3082C20.4809 15.6102 20.1319 15.1304 19.5087 14.8499C19.2283 14.7253 18.9292 14.6318 18.63 14.5321C18.2561 14.4075 17.8822 14.2953 17.5083 14.1582C17.2777 14.0709 17.1842 13.884 17.2029 13.6347C17.2216 13.3979 17.3649 13.2358 17.583 13.1985C17.8448 13.1548 18.1252 13.1299 18.3807 13.1735C18.6923 13.2296 18.9852 13.3729 19.3155 13.4851C19.5212 13.1673 19.7331 12.8308 19.9824 12.4381C19.6957 12.3073 19.4526 12.1452 19.1909 12.1016C18.8232 12.0393 18.711 11.871 18.7547 11.522C18.7671 11.441 18.6549 11.279 18.5864 11.2728C18.2125 11.2541 17.8199 11.2665 17.4335 11.2665Z" fill="#CAFF33"/>
<path d="M17.7698 32.8542C16.4423 32.8542 15.1087 32.8168 13.7813 32.8667C12.8901 32.8979 12.1298 32.6299 11.4131 32.1562C10.3973 31.477 9.46874 30.7042 8.65858 29.7819C7.46204 28.417 6.25303 27.0522 5.05649 25.6874C4.07806 24.5657 4.52053 22.908 5.9165 22.453C6.07853 22.3969 6.26549 22.3782 6.43376 22.3782C7.54305 22.372 8.65858 22.3658 9.76788 22.3845C9.92368 22.3845 10.1106 22.4655 10.2228 22.5714C10.9831 23.3068 11.731 24.0609 12.4726 24.815C12.6221 24.9645 12.7592 24.9957 12.9711 24.9645C13.4198 24.896 13.881 24.8336 14.3359 24.8336C16.4361 24.8212 18.5301 24.8274 20.6302 24.8274C21.3469 24.8274 21.8766 25.1951 22.0636 25.8058C22.3503 26.7282 21.6772 27.5944 20.6489 27.6007C19.2592 27.6069 17.8632 27.6007 16.4735 27.6007C16.2242 27.6007 15.9749 27.5944 15.7257 27.6007C15.277 27.6131 14.9841 27.8998 14.9778 28.3049C14.9778 28.7162 15.2707 29.0278 15.7132 29.0278C17.9256 29.034 20.1379 29.034 22.3503 29.0278C22.799 29.0278 23.123 28.7785 23.4346 28.4794C24.8805 27.0896 26.3263 25.6999 27.7783 24.3164C28.3704 23.7493 29.1556 23.7244 29.7165 24.2291C30.321 24.7776 30.3335 25.6625 29.7227 26.2795C29.0808 26.9338 28.4265 27.5508 27.7783 28.1802C26.345 29.57 24.9116 30.9535 23.4845 32.3432C23.1355 32.6797 22.7491 32.8542 22.2568 32.8542C20.7611 32.848 19.2654 32.8542 17.7698 32.8542Z" fill="#CAFF33"/>
<path d="M10.3537 6.51782C10.9582 7.12233 11.5627 7.72683 12.1547 8.31887C11.787 8.68656 11.4006 9.07294 11.0143 9.45309C10.4409 8.86105 9.83641 8.23785 9.25684 7.63958C9.5996 7.29059 9.98598 6.89174 10.3537 6.51782Z" fill="#CAFF33"/>
<path d="M26.0896 6.51782C26.4573 6.88551 26.8375 7.27813 27.1927 7.63335C26.6007 8.22539 25.9837 8.84236 25.3854 9.4344C25.024 9.07294 24.6438 8.68033 24.2637 8.30017C24.8557 7.7206 25.4664 7.12233 26.0896 6.51782Z" fill="#CAFF33"/>
<path d="M27.523 16.3394C27.523 15.8097 27.5168 15.3236 27.5293 14.8375C27.5293 14.7752 27.6477 14.663 27.71 14.663C28.4703 14.6506 29.2244 14.6506 29.9847 14.663C30.047 14.663 30.1654 14.7565 30.1654 14.8064C30.1779 15.3112 30.1716 15.816 30.1716 16.3394C29.2805 16.3394 28.4204 16.3394 27.523 16.3394Z" fill="#CAFF33"/>
<path d="M8.90173 16.3581C8.04171 16.3581 7.23778 16.3644 6.42762 16.3519C6.3653 16.3519 6.26559 16.2335 6.25936 16.1649C6.24689 15.7287 6.24066 15.2925 6.25936 14.8562C6.25936 14.7877 6.384 14.663 6.45255 14.663C7.20039 14.6506 7.94823 14.6506 8.69607 14.663C8.76462 14.663 8.88926 14.7627 8.88926 14.8251C8.90796 15.3112 8.90173 15.8097 8.90173 16.3581Z" fill="#CAFF33"/>
</g>
<defs>
<clipPath id="clip0_101_96">
<rect width="25.6447" height="31.7333" fill="white" transform="translate(4.5332 1.1333)"/>
</clipPath>
</defs>
</svg>
