<svg width="34" height="34" viewBox="0 0 34 34" fill="none" xmlns="http://www.w3.org/2000/svg">
<path d="M16.4107 3.36595C16.7676 3.12802 17.2326 3.12802 17.5895 3.36595L30.3395 11.8659C30.8277 12.1914 30.9597 12.8511 30.6342 13.3394C30.3087 13.8276 29.649 13.9596 29.1607 13.6341L17.0001 5.52697L4.83948 13.6341C4.35123 13.9596 3.69156 13.8276 3.36606 13.3394C3.04056 12.8511 3.17249 12.1914 3.66074 11.8659L16.4107 3.36595Z" fill="#CAFF33"/>
<path fill-rule="evenodd" clip-rule="evenodd" d="M28.6875 14.6377V28.6875H29.75C30.3368 28.6875 30.8125 29.1632 30.8125 29.75C30.8125 30.3368 30.3368 30.8125 29.75 30.8125H4.25C3.6632 30.8125 3.1875 30.3368 3.1875 29.75C3.1875 29.1632 3.6632 28.6875 4.25 28.6875H5.3125V14.6377C5.3125 14.1145 5.69341 13.6692 6.2103 13.5881C9.72652 13.0363 13.3302 12.75 17 12.75C20.6698 12.75 24.2735 13.0363 27.7897 13.5881C28.3066 13.6692 28.6875 14.1145 28.6875 14.6377ZM18.0625 18.0625C18.0625 17.4757 17.5868 17 17 17C16.4132 17 15.9375 17.4757 15.9375 18.0625V27.625C15.9375 28.2118 16.4132 28.6875 17 28.6875C17.5868 28.6875 18.0625 28.2118 18.0625 27.625V18.0625ZM22.3125 17C22.8993 17 23.375 17.4757 23.375 18.0625V27.625C23.375 28.2118 22.8993 28.6875 22.3125 28.6875C21.7257 28.6875 21.25 28.2118 21.25 27.625V18.0625C21.25 17.4757 21.7257 17 22.3125 17ZM12.75 18.0625C12.75 17.4757 12.2743 17 11.6875 17C11.1007 17 10.625 17.4757 10.625 18.0625V27.625C10.625 28.2118 11.1007 28.6875 11.6875 28.6875C12.2743 28.6875 12.75 28.2118 12.75 27.625V18.0625Z" fill="#CAFF33"/>
<path d="M17 11.1562C17.8802 11.1562 18.5938 10.4427 18.5938 9.5625C18.5938 8.6823 17.8802 7.96875 17 7.96875C16.1198 7.96875 15.4062 8.6823 15.4062 9.5625C15.4062 10.4427 16.1198 11.1562 17 11.1562Z" fill="#CAFF33"/>
</svg>
