<svg width="34" height="34" viewBox="0 0 34 34" fill="none" xmlns="http://www.w3.org/2000/svg">
<path d="M14.8234 12.3905C15.1453 12.1348 15.5277 11.9489 15.9375 11.8327V15.7922C15.5198 15.6736 15.1385 15.4848 14.8234 15.2345C14.2657 14.7914 14.0498 14.27 14.0498 13.8125C14.0498 13.355 14.2657 12.8336 14.8234 12.3905Z" fill="#CAFF33"/>
<path d="M18.0625 22.1873V18.1876C18.5544 18.3073 19.0028 18.5099 19.3677 18.7835C19.9719 19.2367 20.1875 19.7552 20.1875 20.1875C20.1875 20.6197 19.9719 21.1382 19.3677 21.5914C19.0028 21.8651 18.5544 22.0677 18.0625 22.1873Z" fill="#CAFF33"/>
<path fill-rule="evenodd" clip-rule="evenodd" d="M17 3.1875C9.37157 3.1875 3.1875 9.37157 3.1875 17C3.1875 24.6284 9.37157 30.8125 17 30.8125C24.6284 30.8125 30.8125 24.6284 30.8125 17C30.8125 9.37157 24.6284 3.1875 17 3.1875ZM18.0625 8.5C18.0625 7.9132 17.5868 7.4375 17 7.4375C16.4132 7.4375 15.9375 7.9132 15.9375 8.5V9.65547C15.0494 9.81281 14.2025 10.1699 13.5017 10.7267C12.4925 11.5283 11.9248 12.6385 11.9248 13.8125C11.9248 14.9865 12.4925 16.0967 13.5017 16.8983C14.2135 17.4638 15.0629 17.8146 15.9375 17.9695V22.1872C15.4457 22.0676 14.9974 21.865 14.6326 21.5914L13.3875 20.6575C12.9181 20.3054 12.2521 20.4006 11.9 20.87C11.5479 21.3394 11.643 22.0054 12.1125 22.3575L13.3576 23.2914C14.1129 23.8579 15.0137 24.2046 15.9375 24.353V25.5C15.9375 26.0868 16.4132 26.5625 17 26.5625C17.5868 26.5625 18.0625 26.0868 18.0625 25.5V24.353C18.9864 24.2046 19.8873 23.858 20.6428 23.2914C21.6983 22.4997 22.3125 21.3867 22.3125 20.1875C22.3125 18.9882 21.6983 17.8752 20.6428 17.0836C19.8873 16.517 18.9864 16.1703 18.0625 16.0219V11.8328C18.4722 11.949 18.8544 12.1349 19.1762 12.3905L19.7639 12.8575C20.2234 13.2225 20.8918 13.1459 21.2568 12.6864C21.6218 12.2269 21.5452 11.5586 21.0857 11.1936L20.4979 10.7267C19.7972 10.17 18.9505 9.81292 18.0625 9.65554V8.5Z" fill="#CAFF33"/>
</svg>
