<svg width="34" height="34" viewBox="0 0 34 34" fill="none" xmlns="http://www.w3.org/2000/svg">
<g clip-path="url(#clip0_101_120)">
<path d="M27.9451 15.8876C27.9451 16.7352 27.9565 17.5771 27.9394 18.4247C27.928 18.8819 28.0589 19.2834 28.2977 19.6626C28.912 20.6551 29.7254 21.486 30.5501 22.3056C30.8572 22.6123 31.1757 22.9023 31.4999 23.1867C31.6592 23.3261 31.7331 23.471 31.7331 23.6885C31.7218 24.6197 31.7218 25.5453 31.7274 26.4765C31.7331 27.2516 31.3919 27.8315 30.6809 28.1549C29.9529 28.4839 29.2703 28.3445 28.6731 27.8371C27.4389 26.7776 26.2103 25.7126 24.9818 24.6532C24.1457 23.9283 23.3153 23.1922 22.4621 22.4896C22.1607 22.2387 21.8024 22.0547 21.4554 21.8651C20.9435 21.5863 20.3918 21.4358 19.7946 21.4581C19.3623 21.4748 18.9187 21.4804 18.4864 21.4469C17.8551 21.3967 17.4057 20.9674 17.3204 20.3763C17.2408 19.8577 17.5536 19.3001 18.0769 19.0994C18.276 19.0213 18.4978 18.9879 18.7139 18.9879C20.352 18.9767 21.99 18.9823 23.6338 18.9823C24.2481 18.9823 24.4699 18.7648 24.4699 18.1571C24.4699 16.9303 24.4642 15.7036 24.4699 14.4769C24.4756 14.0085 24.3106 13.6404 23.9523 13.3226C21.8877 11.5048 19.8344 9.67587 17.7754 7.84693C17.2237 7.35623 17.1612 6.63135 17.6219 6.10162C18.0769 5.57189 18.822 5.52171 19.4078 5.96779C22.0412 7.97517 24.669 9.98255 27.3138 11.9788C27.7517 12.3078 27.9565 12.7092 27.9508 13.239C27.9394 14.12 27.9451 15.001 27.9451 15.8876Z" fill="#CAFF33"/>
<path d="M1.13879 25.1661C1.13879 24.6643 1.14447 24.1624 1.1331 23.6606C1.12741 23.4654 1.20704 23.3372 1.33786 23.2033C2.1967 22.3391 3.04418 21.4636 3.88596 20.5826C4.06228 20.3986 4.1931 20.1811 4.34667 19.9804C4.7505 19.4395 4.93819 18.8484 4.92113 18.157C4.887 16.5623 4.92682 14.9619 4.90406 13.3616C4.89269 12.7315 5.1202 12.2854 5.63778 11.8951C8.26551 9.93233 10.8648 7.9361 13.4755 5.94545C14.0215 5.52724 14.7723 5.59416 15.2159 6.096C15.6709 6.609 15.6311 7.34504 15.1022 7.82458C14.3002 8.54947 13.4869 9.25763 12.6792 9.97694C11.3995 11.1089 10.1197 12.2464 8.83997 13.3783C8.53852 13.646 8.39064 13.9694 8.39064 14.3597C8.39064 15.6589 8.38496 16.9582 8.39064 18.263C8.39064 18.7425 8.6409 18.9767 9.13574 18.9767C10.825 18.9823 12.5086 18.9767 14.1978 18.9823C14.9941 18.9823 15.5515 19.5287 15.5344 20.2648C15.5231 20.8279 15.1079 21.3354 14.5334 21.419C14.1921 21.4692 13.8338 21.4915 13.4869 21.458C12.3209 21.3465 11.3369 21.7647 10.4667 22.445C9.57938 23.1364 8.74897 23.9059 7.9015 24.6364C6.65589 25.707 5.41596 26.7887 4.16466 27.8538C3.15224 28.7181 1.65637 28.3389 1.2241 27.1066C1.16722 26.9504 1.15016 26.7776 1.14447 26.6159C1.1331 26.1363 1.13879 25.6512 1.13879 25.1661Z" fill="#CAFF33"/>
<path d="M17.2408 17.0418C17.2408 17.3094 17.2408 17.5603 17.2408 17.8336C16.763 17.8336 16.308 17.8336 15.8132 17.8336C15.8132 17.6161 15.8075 17.4042 15.8132 17.1923C15.8189 17.0362 15.7734 16.9693 15.6084 16.9302C15.1363 16.8187 14.6984 16.6291 14.2889 16.3057C14.5505 15.9656 14.8008 15.6422 15.0283 15.3411C15.4605 15.5028 15.853 15.6923 16.2682 15.7871C16.5697 15.8541 16.9052 15.8094 17.2181 15.7593C17.4569 15.7202 17.6105 15.5362 17.6276 15.2853C17.6503 15.0288 17.5138 14.8504 17.2863 14.7611C16.8995 14.6162 16.4957 14.5046 16.1033 14.3764C15.8189 14.2816 15.5231 14.198 15.2444 14.0809C14.5903 13.8076 14.2434 13.3225 14.2263 12.6088C14.2092 11.8616 14.4936 11.2594 15.1762 10.936C15.6198 10.7241 16.0009 10.568 15.7791 9.94901C16.2625 9.94901 16.6834 9.94344 17.11 9.96016C17.1555 9.96016 17.2351 10.0996 17.2351 10.1776C17.2636 10.6516 17.2636 10.6404 17.7129 10.7966C17.9745 10.8858 18.2248 11.014 18.5092 11.1423C18.2703 11.5047 18.0769 11.8226 17.8608 12.1237C17.8266 12.1683 17.6901 12.1627 17.6105 12.1404C17.2351 12.0456 16.8711 11.9229 16.4957 11.8504C16.3478 11.8226 16.1772 11.8672 16.0236 11.9062C15.7961 11.9675 15.6426 12.1181 15.6255 12.3634C15.6084 12.6032 15.7165 12.7872 15.9383 12.8764C16.2284 12.9935 16.5242 13.0828 16.8199 13.1775C17.1441 13.2835 17.4797 13.3616 17.7925 13.4787C18.6969 13.8244 19.0609 14.3708 19.0154 15.2686C18.9699 16.0938 18.4523 16.7072 17.5991 16.947C17.4968 16.9804 17.3887 17.0083 17.2408 17.0418Z" fill="#CAFF33"/>
</g>
<defs>
<clipPath id="clip0_101_120">
<rect width="30.6" height="22.6667" fill="white" transform="translate(1.1333 5.66663)"/>
</clipPath>
</defs>
</svg>
