<svg width="20" height="20" viewBox="0 0 20 20" fill="none" xmlns="http://www.w3.org/2000/svg">
<path fill-rule="evenodd" clip-rule="evenodd" d="M6.35288 1.79876C7.17705 0.850931 8.39332 0.25 9.75 0.25C11.1066 0.25 12.3228 0.850872 13.147 1.79861C14.4001 1.71106 15.6852 2.14616 16.6446 3.10557C17.604 4.06498 18.0391 5.35009 17.9516 6.60319C18.8992 7.42735 19.5 8.64348 19.5 10C19.5 11.3568 18.899 12.5731 17.9511 13.3973C18.0384 14.6502 17.6033 15.935 16.6441 16.8943C15.6848 17.8535 14.4 18.2886 13.1471 18.2013C12.3229 19.1491 11.1067 19.75 9.75 19.75C8.3934 19.75 7.1772 19.1491 6.35304 18.2014C5.09992 18.289 3.8148 17.8539 2.85537 16.8945C1.89596 15.935 1.46086 14.6499 1.54841 13.3968C0.600785 12.5726 0 11.3565 0 10C0 8.64342 0.600846 7.42723 1.54855 6.60306C1.4611 5.35005 1.89621 4.06507 2.85554 3.10574C3.81488 2.1464 5.09987 1.71129 6.35288 1.79876ZM13.3603 8.18593C13.6011 7.84887 13.523 7.38046 13.1859 7.1397C12.8489 6.89894 12.3805 6.97701 12.1397 7.31407L8.9043 11.8436L7.28033 10.2197C6.98744 9.92678 6.51256 9.92678 6.21967 10.2197C5.92678 10.5126 5.92678 10.9874 6.21967 11.2803L8.46967 13.5303C8.62556 13.6862 8.84215 13.7656 9.06186 13.7474C9.28157 13.7293 9.48216 13.6153 9.6103 13.4359L13.3603 8.18593Z" fill="#CAFF33"/>
</svg>
